RobotoSerifDisplay-SuperWidth300.ufo
<glyph name="four" format="2">
  <advance width="422.8"/>
  <unicode hex="0034"/>
  <outline>
    <contour>
      <point x="14.605" y="79.6" type="line"/>
      <point x="418.395" y="79.6" type="line"/>
      <point x="418.395" y="202.6" type="line"/>
      <point x="62.355000000000004" y="202.6" type="line"/>
      <point x="56.915" y="166.4" type="line"/>
      <point x="260.59999999999997" y="582.0" type="line"/>
      <point x="261.255" y="609.0" type="line"/>
      <point x="235.195" y="609.0" type="line"/>
      <point x="14.605" y="174.6" type="line"/>
    </contour>
    <contour>
      <point x="378.89" y="-77.0" type="line"/>
      <point x="378.89" y="609.0" type="line"/>
      <point x="245.005" y="609.0" type="line"/>
      <point x="192.725" y="499.6" type="line"/>
      <point x="192.725" y="-77.0" type="line"/>
    </contour>
  </outline>
</glyph>
<glyph name="less" format="2">
  <advance width="422.8"/>
  <unicode hex="003C"/>
  <outline>
    <contour>
      <point x="358.685" y="581.6" type="line"/>
      <point x="63.965" y="404.6" type="line"/>
      <point x="63.965" y="337.0" type="line"/>
      <point x="80.215" y="295.0" type="line"/>
      <point x="358.685" y="458.0" type="line"/>
    </contour>
    <contour>
      <point x="358.685" y="241.0" type="line"/>
      <point x="80.515" y="403.2" type="line"/>
      <point x="63.965" y="353.0" type="line"/>
      <point x="63.965" y="285.6" type="line"/>
      <point x="358.685" y="108.6" type="line"/>
    </contour>
  </outline>
</glyph>
<glyph name="P" format="2">
  <advance width="559"/>
  <unicode hex="0050"/>
  <outline>
    <contour>
      <point x="267" y="53" type="line"/>
      <point x="267" y="43"/>
      <point x="280" y="40"/>
      <point x="292" y="40" type="curve" smooth="yes"/>
      <point x="310" y="40" type="line"/>
      <point x="310" y="0.0" type="line"/>
      <point x="15" y="0.0" type="line"/>
      <point x="15" y="40" type="line"/>
      <point x="23" y="40" type="line" smooth="yes"/>
      <point x="40" y="40"/>
      <point x="52" y="46"/>
      <point x="52" y="72" type="curve" smooth="yes"/>
      <point x="52" y="638" type="line" smooth="yes"/>
      <point x="52" y="664"/>
      <point x="40" y="670"/>
      <point x="23" y="670" type="curve" smooth="yes"/>
      <point x="15" y="670" type="line"/>
      <point x="15" y="710.0" type="line"/>
      <point x="338" y="710.0" type="line" smooth="yes"/>
      <point x="478" y="710.0"/>
      <point x="556" y="638"/>
      <point x="556" y="508" type="curve" smooth="yes"/>
      <point x="556" y="373"/>
      <point x="472" y="292"/>
      <point x="335" y="292" type="curve" smooth="yes"/>
      <point x="225" y="292" type="line"/>
      <point x="225" y="341" type="line"/>
      <point x="279" y="341" type="line" smooth="yes"/>
      <point x="324" y="341"/>
      <point x="348" y="388"/>
      <point x="348" y="504" type="curve" smooth="yes"/>
      <point x="348" y="619"/>
      <point x="324" y="661"/>
      <point x="281" y="661" type="curve" smooth="yes"/>
      <point x="267" y="661" type="line"/>
    </contour>
  </outline>
</glyph>
<glyph name="Q" format="2">
  <advance width="618.8"/>
  <unicode hex="0051"/>
  <outline>
    <contour>
      <point x="291.04" y="5.600000000000001" type="curve"/>
      <point x="288.13" y="-155.4"/>
      <point x="342.09000000000003" y="-222.60000000000002"/>
      <point x="457.29999999999995" y="-222.60000000000002" type="curve" smooth="yes"/>
      <point x="499.76" y="-222.60000000000002"/>
      <point x="539.965" y="-209.4"/>
      <point x="565.3" y="-191.6" type="curve"/>
      <point x="565.3" y="-45.8" type="line"/>
      <point x="544.175" y="-55.0"/>
      <point x="501.255" y="-84.6"/>
      <point x="451.63" y="-84.6" type="curve" smooth="yes"/>
      <point x="380.34000000000003" y="-84.6"/>
      <point x="342.48" y="-61.599999999999994"/>
      <point x="343.09" y="10.0" type="curve"/>
      <point x="344.47" y="9.8"/>
      <point x="289.65999999999997" y="7.200000000000001"/>
    </contour>
    <contour>
      <point x="309.475" y="-10.0" type="curve" smooth="yes"/>
      <point x="481.52" y="-10.0"/>
      <point x="598.5699999999999" y="134.2"/>
      <point x="598.5699999999999" y="355.0" type="curve" smooth="yes"/>
      <point x="598.5699999999999" y="575.2"/>
      <point x="481.52" y="720.0"/>
      <point x="309.475" y="720.0" type="curve" smooth="yes"/>
      <point x="136.625" y="720.0"/>
      <point x="19.425" y="575.2"/>
      <point x="19.425" y="355.0" type="curve" smooth="yes"/>
      <point x="19.425" y="134.2"/>
      <point x="136.625" y="-10.0"/>
    </contour>
    <contour>
      <point x="309.475" y="39.6" type="curve" smooth="yes"/>
      <point x="256.605" y="39.6"/>
      <point x="242.92999999999998" y="132.2"/>
      <point x="242.92999999999998" y="355.0" type="curve" smooth="yes"/>
      <point x="242.92999999999998" y="569.8"/>
      <point x="256.605" y="670.4"/>
      <point x="309.475" y="670.4" type="curve" smooth="yes"/>
      <point x="361.24" y="670.4"/>
      <point x="375.065" y="569.8"/>
      <point x="375.065" y="355.0" type="curve" smooth="yes"/>
      <point x="375.065" y="132.2"/>
      <point x="361.24" y="39.6"/>
    </contour>
  </outline>
</glyph>
<glyph name="T" format="2">
  <advance width="544"/>
  <unicode hex="0054"/>
  <outline>
    <contour>
      <point x="164.525" y="71.6" type="line" smooth="yes"/>
      <point x="164.525" y="45.8"/>
      <point x="154.14000000000001" y="39.6"/>
      <point x="136.555" y="39.6" type="curve" smooth="yes"/>
      <point x="126.355" y="39.6" type="line"/>
      <point x="126.355" y="0.0" type="line"/>
      <point x="417.255" y="0.0" type="line"/>
      <point x="417.255" y="39.6" type="line"/>
      <point x="406.95" y="39.6" type="line" smooth="yes"/>
      <point x="390.16999999999996" y="39.6"/>
      <point x="379.78499999999997" y="45.8"/>
      <point x="379.78499999999997" y="71.6" type="curve" smooth="yes"/>
      <point x="379.78499999999997" y="660.6" type="line"/>
      <point x="426.385" y="660.6" type="line" smooth="yes"/>
      <point x="457.0" y="660.6"/>
      <point x="468.075" y="652.2"/>
      <point x="472.33" y="615.0" type="curve" smooth="yes"/>
      <point x="490.225" y="488.0" type="line"/>
      <point x="526.945" y="488.0" type="line"/>
      <point x="526.945" y="710.0" type="line"/>
      <point x="16.560000000000002" y="710.0" type="line"/>
      <point x="16.560000000000002" y="488.0" type="line"/>
      <point x="53.38499999999999" y="488.0" type="line"/>
      <point x="71.17500000000001" y="615.0" type="line" smooth="yes"/>
      <point x="75.42999999999999" y="652.2"/>
      <point x="86.61" y="660.6"/>
      <point x="117.225" y="660.6" type="curve" smooth="yes"/>
      <point x="164.525" y="660.6" type="line"/>
    </contour>
  </outline>
</glyph>
<glyph name="Y" format="2">
  <advance width="539.2049999999999"/>
  <unicode hex="0059"/>
  <outline>
    <contour>
      <point x="163.18" y="357.4" type="line"/>
      <point x="163.18" y="71.6" type="line" smooth="yes"/>
      <point x="163.18" y="42.6"/>
      <point x="151.645" y="39.6"/>
      <point x="136.015" y="39.6" type="curve" smooth="yes"/>
      <point x="125.815" y="39.6" type="line"/>
      <point x="125.815" y="0.0" type="line"/>
      <point x="415.80499999999995" y="0.0" type="line"/>
      <point x="415.80499999999995" y="39.6" type="line"/>
      <point x="405.605" y="39.6" type="line" smooth="yes"/>
      <point x="389.975" y="39.6"/>
      <point x="378.43999999999994" y="42.6"/>
      <point x="378.43999999999994" y="71.6" type="curve" smooth="yes"/>
      <point x="378.43999999999994" y="357.4" type="line"/>
      <point x="352.38" y="281.4" type="line"/>
      <point x="499.97499999999997" y="636.2" type="line" smooth="yes"/>
      <point x="505.44999999999993" y="660.8"/>
      <point x="513.225" y="670.4"/>
      <point x="527.635" y="670.4" type="curve" smooth="yes"/>
      <point x="533.58" y="670.4" type="line"/>
      <point x="533.58" y="710.0" type="line"/>
      <point x="416.575" y="710.0" type="line"/>
      <point x="416.575" y="670.4" type="line"/>
      <point x="423.65999999999997" y="670.4" type="line" smooth="yes"/>
      <point x="439.62423076921" y="670.4"/>
      <point x="452.745" y="662.2"/>
      <point x="452.745" y="650.8" type="curve"/>
      <point x="348.84999999999997" y="367.8" type="line"/>
      <point x="361.30499999999995" y="368.0" type="line"/>
      <point x="260.375" y="659.6" type="line"/>
      <point x="260.375" y="667.2"/>
      <point x="266.725" y="670.4"/>
      <point x="283.09" y="670.4" type="curve" smooth="yes"/>
      <point x="294.89" y="670.4" type="line"/>
      <point x="294.89" y="710.0" type="line"/>
      <point x="4.715" y="710.0" type="line"/>
      <point x="4.715" y="670.4" type="line"/>
      <point x="12.11" y="670.4" type="line" smooth="yes"/>
      <point x="22.92" y="670.4"/>
      <point x="28.59" y="666.6"/>
      <point x="33.95" y="648.4" type="curve" smooth="yes"/>
      <point x="190.24" y="282.6" type="line"/>
    </contour>
  </outline>
</glyph>
<glyph name="i" format="2">
  <advance width="262.185"/>
  <unicode hex="0069"/>
  <outline>
    <contour>
      <point x="130.76999999999998" y="581.2" type="curve" smooth="yes"/>
      <point x="195.08999999999997" y="581.2"/>
      <point x="231.915" y="614.6"/>
      <point x="231.915" y="671.0" type="curve" smooth="yes"/>
      <point x="231.915" y="727.2"/>
      <point x="195.08999999999997" y="760.6"/>
      <point x="130.76999999999998" y="760.6" type="curve" smooth="yes"/>
      <point x="66.795" y="760.6"/>
      <point x="30.685000000000002" y="727.2"/>
      <point x="30.685000000000002" y="671.0" type="curve" smooth="yes"/>
      <point x="30.685000000000002" y="613.8"/>
      <point x="66.795" y="581.2"/>
    </contour>
    <contour>
      <point x="233.535" y="522.8" type="line"/>
      <point x="9.88" y="522.8" type="line"/>
      <point x="9.88" y="484.8" type="line"/>
      <point x="16.48" y="482.8" type="line" smooth="yes"/>
      <point x="28.39618558464944" y="477.92718794246326"/>
      <point x="30.305" y="473.2"/>
      <point x="30.305" y="454.6" type="curve" smooth="yes"/>
      <point x="30.305" y="62.8" type="line" smooth="yes"/>
      <point x="30.305" y="41.0"/>
      <point x="21.673963414632503" y="37.2"/>
      <point x="10.73" y="37.2" type="curve" smooth="yes"/>
      <point x="9.88" y="37.2" type="line"/>
      <point x="9.88" y="0.0" type="line"/>
      <point x="254.215" y="0.0" type="line"/>
      <point x="254.215" y="37.2" type="line"/>
      <point x="253.26" y="37.2" type="line" smooth="yes"/>
      <point x="243.22444444444" y="37.2"/>
      <point x="233.535" y="41.0"/>
      <point x="233.535" y="62.8" type="curve" smooth="yes"/>
    </contour>
  </outline>
</glyph>
<glyph name="u" format="2">
  <advance width="521"/>
  <unicode hex="0075"/>
  <outline>
    <contour>
      <point x="231.315" y="522.8" type="line"/>
      <point x="8.51" y="522.8" type="line"/>
      <point x="8.51" y="484.8" type="line"/>
      <point x="15.41" y="482.8" type="line" smooth="yes"/>
      <point x="25.82" y="478.0"/>
      <point x="28.89" y="473.2"/>
      <point x="28.89" y="454.6" type="curve" smooth="yes"/>
      <point x="28.89" y="167.0" type="line" smooth="yes"/>
      <point x="28.89" y="52.0"/>
      <point x="82.425" y="-10.0"/>
      <point x="163.755" y="-10.0" type="curve" smooth="yes"/>
      <point x="223.96" y="-10.0"/>
      <point x="279.08" y="29.799999999999997"/>
      <point x="304.40500000000003" y="107.6" type="curve"/>
      <point x="304.40500000000003" y="183.6" type="line"/>
      <point x="284.52" y="104.4"/>
      <point x="265.635" y="77.4"/>
      <point x="250.46499999999997" y="77.4" type="curve" smooth="yes"/>
      <point x="235.905" y="77.4"/>
      <point x="231.315" y="97.80000000000001"/>
      <point x="231.315" y="143.0" type="curve" smooth="yes"/>
    </contour>
    <contour>
      <point x="492.19" y="522.8" type="line"/>
      <point x="256.435" y="522.8" type="line"/>
      <point x="256.435" y="484.8" type="line"/>
      <point x="265.705" y="482.8" type="line" smooth="yes"/>
      <point x="276.25405252277693" y="479.6292652818433"/>
      <point x="289.765" y="473.2"/>
      <point x="289.765" y="454.6" type="curve" smooth="yes"/>
      <point x="289.765" y="108.2" type="line"/>
      <point x="301.0" y="119.8" type="line"/>
      <point x="301.0" y="0.0" type="line"/>
      <point x="512.5699999999999" y="0.0" type="line"/>
      <point x="512.5699999999999" y="38.0" type="line"/>
      <point x="504.635" y="39.6" type="line" smooth="yes"/>
      <point x="493.84747793821975" y="42.723133504247684"/>
      <point x="492.19" y="46.6"/>
      <point x="492.19" y="65.2" type="curve" smooth="yes"/>
    </contour>
  </outline>
</glyph>
<glyph name="v" format="2">
  <advance width="440"/>
  <unicode hex="0076"/>
  <outline>
    <contour>
      <point x="367" y="469" type="curve"/>
      <point x="290" y="134" type="line"/>
      <point x="308" y="142" type="line"/>
      <point x="231" y="476" type="line"/>
      <point x="231" y="483"/>
      <point x="247" y="486"/>
      <point x="262" y="486" type="curve" smooth="yes"/>
      <point x="264" y="486" type="line"/>
      <point x="264" y="523" type="line"/>
      <point x="6" y="523" type="line"/>
      <point x="6" y="486" type="line"/>
      <point x="7" y="486" type="line" smooth="yes"/>
      <point x="22" y="486"/>
      <point x="25" y="477"/>
      <point x="32" y="452" type="curve" smooth="yes"/>
      <point x="150" y="0" type="line"/>
      <point x="290" y="0" type="line"/>
      <point x="406" y="443" type="line" smooth="yes"/>
      <point x="414" y="475"/>
      <point x="422" y="486"/>
      <point x="434" y="486" type="curve"/>
      <point x="435" y="486" type="line"/>
      <point x="435" y="523" type="line"/>
      <point x="334" y="523" type="line"/>
      <point x="334" y="486" type="line"/>
      <point x="336" y="486" type="line" smooth="yes"/>
      <point x="355" y="486"/>
      <point x="367" y="477"/>
    </contour>
  </outline>
</glyph>
<glyph name="w" format="2">
  <advance width="640"/>
  <unicode hex="0077"/>
  <outline>
    <contour>
      <point x="333.59" y="337.4" type="line"/>
      <point x="262.965" y="0.0" type="line"/>
      <point x="127.045" y="0.0" type="line"/>
      <point x="36.825" y="451.2" type="line" smooth="yes"/>
      <point x="32.225" y="477.0"/>
      <point x="26.9" y="485.6"/>
      <point x="7.05" y="485.6" type="curve" smooth="yes"/>
      <point x="5.705" y="485.6" type="line"/>
      <point x="5.705" y="522.8" type="line"/>
      <point x="260.32000000000005" y="522.8" type="line"/>
      <point x="260.32000000000005" y="485.6" type="line"/>
      <point x="260.17" y="485.6" type="line" smooth="yes"/>
      <point x="247.75" y="485.6"/>
      <point x="234.995" y="483.4"/>
      <point x="234.995" y="476.4" type="curve"/>
      <point x="285.08" y="148.4" type="line"/>
      <point x="267.185" y="148.4" type="line"/>
      <point x="341.55999999999995" y="522.8" type="line"/>
      <point x="459.355" y="522.8" type="line"/>
      <point x="529.395" y="154.20000000000002" type="line"/>
      <point x="512.995" y="154.2" type="line"/>
      <point x="565.61" y="464.6" type="line"/>
      <point x="565.61" y="476.8"/>
      <point x="553.4649999999999" y="485.6"/>
      <point x="542.39" y="485.6" type="curve" smooth="yes"/>
      <point x="542.24" y="485.6" type="line"/>
      <point x="542.24" y="522.8" type="line"/>
      <point x="634.9" y="522.8" type="line"/>
      <point x="634.9" y="485.6" type="line"/>
      <point x="633.5550000000001" y="485.6" type="line" smooth="yes"/>
      <point x="620.34" y="485.6"/>
      <point x="612.22" y="474.2"/>
      <point x="605.47" y="441.8" type="curve" smooth="yes"/>
      <point x="515.0649999999999" y="0.0" type="line"/>
      <point x="380.295" y="0.0" type="line"/>
      <point x="319.78999999999996" y="337.4" type="line"/>
    </contour>
  </outline>
</glyph>
<glyph name="x" format="2">
  <advance width="450"/>
  <unicode hex="0078"/>
  <outline>
    <contour>
      <point x="445.19" y="0.0" type="line"/>
      <point x="445.19" y="37.2" type="line"/>
      <point x="441.54499999999996" y="37.2" type="line"/>
      <point x="430.46999999999997" y="37.2"/>
      <point x="428.985" y="47.400000000000006"/>
      <point x="418.025" y="72.8" type="curve" smooth="yes"/>
      <point x="313.59000000000003" y="310.8" type="line"/>
      <point x="308.99" y="314.8" type="line"/>
      <point x="243.275" y="477.2" type="line"/>
      <point x="243.275" y="484.2"/>
      <point x="256.145" y="486.4"/>
      <point x="265.92" y="486.4" type="curve" smooth="yes"/>
      <point x="268.37" y="486.4" type="line"/>
      <point x="268.37" y="522.8" type="line"/>
      <point x="6.625" y="522.8" type="line"/>
      <point x="6.625" y="485.6" type="line"/>
      <point x="6.475000000000001" y="485.6" type="line"/>
      <point x="20.884999999999998" y="485.6"/>
      <point x="24" y="478"/>
      <point x="33" y="458" type="curve" smooth="yes"/>
      <point x="136.2" y="228.8" type="line"/>
      <point x="138.8" y="225.4" type="line"/>
      <point x="210.575" y="47.400000000000006" type="line"/>
      <point x="210.575" y="39.400000000000006"/>
      <point x="199.625" y="37.2"/>
      <point x="189.7" y="37.2" type="curve" smooth="yes"/>
      <point x="188.505" y="37.2" type="line"/>
      <point x="188.505" y="0.0" type="line"/>
    </contour>
    <contour>
      <point x="5.0600000000000005" y="0.0" type="line"/>
      <point x="106.035" y="0.0" type="line"/>
      <point x="106.035" y="37.2" type="line"/>
      <point x="105.885" y="37.2" type="line" smooth="yes"/>
      <point x="87.22" y="37.2"/>
      <point x="78.985" y="41.6"/>
      <point x="78.985" y="52.0" type="curve"/>
      <point x="181.305" y="247.4" type="line"/>
      <point x="150.875" y="277.6" type="line"/>
      <point x="37.515" y="71.2" type="line" smooth="yes"/>
      <point x="22.715000000000003" y="43.2"/>
      <point x="17.045" y="37.2"/>
      <point x="8.465" y="37.2" type="curve" smooth="yes"/>
      <point x="5.0600000000000005" y="37.2" type="line"/>
    </contour>
    <contour>
      <point x="297.605" y="251.4" type="line"/>
      <point x="405" y="448" type="line" smooth="yes"/>
      <point x="419" y="473"/>
      <point x="425.07500000000005" y="486.4"/>
      <point x="437.90999999999997" y="486.4" type="curve"/>
      <point x="437.76" y="486.4" type="line"/>
      <point x="437.76" y="522.8" type="line"/>
      <point x="337.315" y="522.8" type="line"/>
      <point x="337.315" y="486.4" type="line"/>
      <point x="339.765" y="486.4" type="line" smooth="yes"/>
      <point x="359.12" y="486.4"/>
      <point x="365.895" y="481.8"/>
      <point x="365.895" y="471.8" type="curve"/>
      <point x="266.21" y="288.2" type="line"/>
    </contour>
  </outline>
</glyph>
<glyph name="Uogonek" format="2">
  <advance width="559.62"/>
  <unicode hex="0172"/>
  <outline>
    <contour>
      <point x="343.16" y="-244.0" type="curve" smooth="yes"/>
      <point x="409.355" y="-244.0"/>
      <point x="446.72" y="-214.6"/>
      <point x="475.54999999999995" y="-170.8" type="curve"/>
      <point x="435.105" y="-125.4" type="line"/>
      <point x="428.745" y="-136.0"/>
      <point x="416.29" y="-154.0"/>
      <point x="396.59000000000003" y="-154.0" type="curve" smooth="yes"/>
      <point x="379.73" y="-154.0"/>
      <point x="369.77" y="-140.0"/>
      <point x="369.77" y="-109.2" type="curve" smooth="yes"/>
      <point x="369.77" y="-68.415824175822"/>
      <point x="388.48346403339" y="-23.225321273812"/>
      <point x="448.59499999999997" y="55.8" type="curve" smooth="yes"/>
      <point x="489.663732932185" y="104.82325199416"/>
      <point x="509.995" y="175.3720588235"/>
      <point x="509.995" y="273.6" type="curve" smooth="yes"/>
      <point x="509.995" y="597.2" type="line" smooth="yes"/>
      <point x="509.995" y="629.6"/>
      <point x="520.875" y="638.4"/>
      <point x="538.045" y="638.4" type="curve" smooth="yes"/>
      <point x="545.9" y="638.4" type="line"/>
      <point x="545.9" y="710.0" type="line"/>
      <point x="394.255" y="710.0" type="line"/>
      <point x="394.255" y="638.4" type="line"/>
      <point x="399.235" y="638.4" type="line" smooth="yes"/>
      <point x="410.645" y="638.4"/>
      <point x="428.24" y="632.2"/>
      <point x="428.24" y="617.4" type="curve" smooth="yes"/>
      <point x="428.24" y="273.6" type="line" smooth="yes"/>
      <point x="428.24" y="144.8"/>
      <point x="397.35" y="89.60000000000001"/>
      <point x="345.32" y="89.60000000000001" type="curve" smooth="yes"/>
      <point x="286.46" y="89.60000000000001"/>
      <point x="264.885" y="139.4"/>
      <point x="264.885" y="272.2" type="curve" smooth="yes"/>
      <point x="264.885" y="628.4" type="line" smooth="yes"/>
      <point x="264.885" y="635.4"/>
      <point x="281.16999999999996" y="638.4"/>
      <point x="293.545" y="638.4" type="curve" smooth="yes"/>
      <point x="300.445" y="638.4" type="line"/>
      <point x="300.445" y="710.0" type="line"/>
      <point x="13.720000000000002" y="710.0" type="line"/>
      <point x="13.720000000000002" y="638.4" type="line"/>
      <point x="22.115000000000002" y="638.4" type="line" smooth="yes"/>
      <point x="38.895" y="638.4"/>
      <point x="49.625" y="631.4"/>
      <point x="49.625" y="602.4" type="curve" smooth="yes"/>
      <point x="49.625" y="272.0" type="line" smooth="yes"/>
      <point x="49.625" y="75.8"/>
      <point x="141.755" y="-10.0"/>
      <point x="290.35" y="-10.0" type="curve" smooth="yes"/>
      <point x="319.7" y="-10.0"/>
      <point x="347.635" y="0.20000000000000018"/>
      <point x="372.545" y="17.200000000000003" type="curve"/>
      <point x="410.805" y="53.2" type="line"/>
      <point x="292.74720138174" y="-7.2072347435939985"/>
      <point x="228.525" y="-55.2"/>
      <point x="228.525" y="-140.2" type="curve" smooth="yes"/>
      <point x="228.525" y="-207.6"/>
      <point x="274.055" y="-244.0"/>
    </contour>
  </outline>
</glyph>
<glyph name="ohorn" format="2">
  <advance width="526.565"/>
  <unicode hex="01A1"/>
  <anchor x="232.1" y="538.0" name="top"/>
  <outline>
    <contour>
      <point x="286.025" y="476.0" type="curve"/>
      <point x="479.15662147893" y="459.39962039092"/>
      <point x="544.045" y="510.8"/>
      <point x="544.0450000000001" y="682.0" type="curve"/>
      <point x="414.185" y="682.0" type="line"/>
      <point x="412.69" y="558.0"/>
      <point x="370.025" y="524.8"/>
      <point x="258.58500000000004" y="524.8" type="curve"/>
      <point x="262.38" y="512.8"/>
      <point x="277.745" y="479.2"/>
    </contour>
    <contour>
      <point x="255.94" y="-13.2" type="curve" smooth="yes"/>
      <point x="408.365" y="-13.2"/>
      <point x="496.20500000000004" y="95.2"/>
      <point x="496.20500000000004" y="257.2" type="curve" smooth="yes"/>
      <point x="496.20500000000004" y="371.4"/>
      <point x="443.095" y="469.4"/>
      <point x="351.76" y="495.8" type="curve"/>
      <point x="323.48" y="515.8"/>
      <point x="291.855" y="524.8"/>
      <point x="255.94" y="524.8" type="curve" smooth="yes"/>
      <point x="103.515" y="524.8"/>
      <point x="15.675000000000002" y="416.0"/>
      <point x="15.675000000000002" y="255.6" type="curve" smooth="yes"/>
      <point x="15.675000000000002" y="95.2"/>
      <point x="103.515" y="-13.2"/>
    </contour>
    <contour>
      <point x="255.94" y="69.2" type="curve" smooth="yes"/>
      <point x="232.26999999999998" y="69.2"/>
      <point x="221.70000000000002" y="129.4"/>
      <point x="221.70000000000002" y="255.6" type="curve" smooth="yes"/>
      <point x="221.70000000000002" y="382.0"/>
      <point x="232.26999999999998" y="442.4"/>
      <point x="255.94" y="442.4" type="curve" smooth="yes"/>
      <point x="279.61" y="442.4"/>
      <point x="290.18" y="382.0"/>
      <point x="290.18" y="255.6" type="curve" smooth="yes"/>
      <point x="290.18" y="129.4"/>
      <point x="279.61" y="69.2"/>
    </contour>
  </outline>
</glyph>
<glyph name="breve" format="2">
  <advance width="376.8"/>
  <unicode hex="02D8"/>
  <anchor x="188.4" y="517.0" name="_top"/>
  <outline>
    <contour>
      <point x="188.4" y="561.8" type="curve" smooth="yes"/>
      <point x="105.505" y="561.8"/>
      <point x="47.785000000000004" y="623.6"/>
      <point x="51.075" y="749.2" type="curve"/>
      <point x="141.04" y="749.2" type="line"/>
      <point x="145.445" y="699.4"/>
      <point x="161.315" y="685.4"/>
      <point x="190.7" y="685.4" type="curve" smooth="yes"/>
      <point x="220.935" y="685.4"/>
      <point x="236.0" y="699.4"/>
      <point x="241.21" y="749.2" type="curve"/>
      <point x="326.42499999999995" y="749.2" type="line"/>
      <point x="329.715" y="623.6"/>
      <point x="271.65" y="561.8"/>
    </contour>
  </outline>
</glyph>
<glyph name="ogonek" format="2">
  <advance width="453.0"/>
  <unicode hex="02DB"/>
  <anchor x="268.5" y="9.0" name="_right"/>
  <outline>
    <contour>
      <point x="283.07" y="40.0" type="line"/>
      <point x="154.82" y="-8.8"/>
      <point x="91.43000000000002" y="-55.97866666666667"/>
      <point x="91.43000000000002" y="-140.2" type="curve" smooth="yes"/>
      <point x="91.43000000000002" y="-207.6"/>
      <point x="136.96" y="-244.0"/>
      <point x="206.065" y="-244.0" type="curve" smooth="yes"/>
      <point x="272.26" y="-244.0"/>
      <point x="309.625" y="-214.6"/>
      <point x="338.455" y="-170.8" type="curve"/>
      <point x="298.01" y="-125.4" type="line"/>
      <point x="291.8075323343638" y="-135.87769930588513"/>
      <point x="279.03714285714284" y="-154.0"/>
      <point x="259.195" y="-154.0" type="curve" smooth="yes"/>
      <point x="242.6455319148936" y="-154.0"/>
      <point x="232.675" y="-139.2"/>
      <point x="232.675" y="-109.2" type="curve" smooth="yes"/>
      <point x="232.675" y="-72.869152542368"/>
      <point x="251.330791841345" y="-28.68629515696"/>
      <point x="319.975" y="15.200000000000001" type="curve"/>
    </contour>
  </outline>
</glyph>
<glyph name="horizontalbar" format="2">
  <advance width="713.3"/>
  <unicode hex="2015"/>
  <outline>
    <contour>
      <point x="0.0" y="371.6" type="line"/>
      <point x="0.0" y="258.4" type="line"/>
      <point x="713.3" y="258.4" type="line"/>
      <point x="713.3" y="371.6" type="line"/>
    </contour>
  </outline>
</glyph>
<glyph name="infinity" format="2">
  <advance width="585.6"/>
  <unicode hex="221E"/>
  <outline>
    <contour>
      <point x="162.65" y="138.0" type="curve" smooth="yes"/>
      <point x="87.93393063583815" y="138.0"/>
      <point x="37.4" y="221.6"/>
      <point x="37.4" y="345.0" type="curve" smooth="yes"/>
      <point x="37.4" y="469.4"/>
      <point x="97.845" y="556.0"/>
      <point x="186.18" y="556.0" type="curve" smooth="yes"/>
      <point x="278.275" y="556.0"/>
      <point x="321.7462742831219" y="461.60411347534097"/>
      <point x="350.99" y="372.0" type="curve" smooth="yes"/>
      <point x="374.555" y="294.0"/>
      <point x="391.07" y="248.0"/>
      <point x="431.345" y="248.0" type="curve" smooth="yes"/>
      <point x="468.33" y="248.0"/>
      <point x="485.375" y="288.8"/>
      <point x="485.375" y="352.0" type="curve" smooth="yes"/>
      <point x="485.375" y="407.2"/>
      <point x="460.35" y="448.0"/>
      <point x="416.21" y="448.0" type="curve" smooth="yes"/>
      <point x="371.635" y="448.0"/>
      <point x="344.84121764210477" y="410.5735326392362"/>
      <point x="333.74" y="361.0" type="curve"/>
      <point x="284.90999999999997" y="362.0" type="line"/>
      <point x="301.45741426423035" y="464.4164173699659"/>
      <point x="353.05" y="556.0"/>
      <point x="423.605" y="556.0" type="curve" smooth="yes"/>
      <point x="496.955" y="556.0"/>
      <point x="548.2" y="472.4"/>
      <point x="548.2" y="349.0" type="curve" smooth="yes"/>
      <point x="548.2" y="224.6"/>
      <point x="488.8" y="138.0"/>
      <point x="400.225" y="138.0" type="curve" smooth="yes"/>
      <point x="310.845" y="138.0"/>
      <point x="264.705" y="228.8"/>
      <point x="234.16" y="331.2" type="curve" smooth="yes"/>
      <point x="215.70017124997275" y="400.57589852931557"/>
      <point x="196.51331125827815" y="446.0"/>
      <point x="159.13" y="446.0" type="curve" smooth="yes"/>
      <point x="121.14384955752212" y="446.0"/>
      <point x="101.03" y="405.2"/>
      <point x="101.03" y="346.0" type="curve" smooth="yes"/>
      <point x="101.03" y="282.8"/>
      <point x="125.10128571428571" y="246.0"/>
      <point x="169.09" y="246.0" type="curve" smooth="yes"/>
      <point x="214.45897959183674" y="246.0"/>
      <point x="240.74940888493413" y="284.2024019913788"/>
      <point x="251.56" y="333.0" type="curve"/>
      <point x="300.39" y="332.0" type="line"/>
      <point x="284.1393627705345" y="229.60424819643674"/>
      <point x="234.88696428571427" y="138.0"/>
    </contour>
  </outline>
</glyph>
<glyph name="blackdownpointingtriangle" format="2">
  <advance width="629.6"/>
  <outline>
    <contour>
      <point x="15.1" y="715.0" type="line"/>
      <point x="314.8" y="0.0" type="line"/>
      <point x="614.5" y="715.0" type="line"/>
    </contour>
  </outline>
</glyph>
<glyph name="breve.uc" format="2">
  <advance width="376.8"/>
  <anchor x="188.4" y="694.0" name="_top"/>
  <outline>
    <contour>
      <point x="188.4" y="747.8" type="curve" smooth="yes"/>
      <point x="115.97465517241379" y="747.8"/>
      <point x="57.215" y="799.2"/>
      <point x="53.155" y="912.6" type="curve"/>
      <point x="144.03" y="912.6" type="line"/>
      <point x="145.64" y="873.6"/>
      <point x="162.95999999999998" y="861.0"/>
      <point x="190.7" y="861.0" type="curve" smooth="yes"/>
      <point x="219.14000000000001" y="861.0"/>
      <point x="235.505" y="873.6"/>
      <point x="238.025" y="912.6" type="curve"/>
      <point x="324.39" y="912.6" type="line"/>
      <point x="320.3299057862206" y="799.2014289089877"/>
      <point x="261.52625" y="747.8"/>
    </contour>
  </outline>
</glyph>
<glyph name="breve_acute.uc" format="2">
  <advance width="384.7"/>
  <anchor x="188.4" y="744.0" name="_top"/>
  <outline>
    <contour>
      <point x="180.54500000000002" y="1031.6" type="curve" smooth="yes"/>
      <point x="154.255" y="955.4" type="line"/>
      <point x="154.255" y="930.4" type="line"/>
      <point x="206.73000000000002" y="930.4" type="line"/>
      <point x="250.375" y="955.4" type="line" smooth="yes"/>
      <point x="303.96500000000003" y="975.8"/>
      <point x="323.965" y="1003.4"/>
      <point x="323.965" y="1043.8" type="curve" smooth="yes"/>
      <point x="323.965" y="1079.0"/>
      <point x="300.435" y="1103.6"/>
      <point x="264.52" y="1103.6" type="curve" smooth="yes"/>
      <point x="225.81" y="1103.6"/>
      <point x="201.085" y="1079.0"/>
    </contour>
    <component base="breve.uc" xOffset="-58.625"/>
  </outline>
</glyph>
<glyph name="cedi.proportional" format="2">
  <advance width="560.125"/>
  <outline>
    <contour>
      <point x="311.775" y="716.0" type="curve"/>
      <point x="141.45499999999998" y="716.0"/>
      <point x="21.689999999999998" y="571.4"/>
      <point x="21.689999999999998" y="355.0" type="curve" smooth="yes"/>
      <point x="21.689999999999998" y="139.6"/>
      <point x="138.27" y="-6.0"/>
      <point x="305.265" y="-6.0" type="curve" smooth="yes"/>
      <point x="445.30499999999995" y="-6.0"/>
      <point x="513.26" y="92.4"/>
      <point x="533.72" y="235.4" type="curve"/>
      <point x="463.81" y="265.4" type="line"/>
      <point x="450.04499999999996" y="152.2"/>
      <point x="404.065" y="76.4"/>
      <point x="337.005" y="76.4" type="curve" smooth="yes"/>
      <point x="246.325" y="76.4"/>
      <point x="219.39" y="178.8"/>
      <point x="219.39" y="355.0" type="curve" smooth="yes"/>
      <point x="219.39" y="523.4"/>
      <point x="237.09" y="634.0"/>
      <point x="326.15" y="634.0" type="curve" smooth="yes"/>
      <point x="384.63" y="634.0"/>
      <point x="412.41499999999996" y="596.0"/>
      <point x="425.33" y="547.8" type="curve"/>
      <point x="490.26" y="552.2"/>
      <point x="428.7" y="626.6"/>
      <point x="386.735" y="635.8" type="curve"/>
      <point x="386.735" y="494.8" type="line"/>
      <point x="523.76" y="494.8" type="line"/>
      <point x="523.76" y="637.0" type="line"/>
      <point x="511.53499999999997" y="656.2"/>
      <point x="447.49" y="716.0"/>
    </contour>
    <contour>
      <point x="273.295" y="790.0" type="line"/>
      <point x="273.295" y="666.0" type="line"/>
      <point x="284.22" y="649.0" type="line"/>
      <point x="284.22" y="57.0" type="line"/>
      <point x="273.295" y="36.2" type="line"/>
      <point x="273.295" y="-120.0" type="line"/>
      <point x="356.085" y="-120.0" type="line"/>
      <point x="356.085" y="35.2" type="line"/>
      <point x="344.355" y="58.400000000000006" type="line"/>
      <point x="344.355" y="654.4" type="line"/>
      <point x="356.085" y="672.8" type="line"/>
      <point x="356.085" y="790.0" type="line"/>
    </contour>
  </outline>
</glyph>
<glyph name="eight.old" format="2">
  <advance width="422.8"/>
  <outline>
    <contour>
      <point x="211.4" y="-10.0" type="curve" smooth="yes"/>
      <point x="344.895" y="-10.0"/>
      <point x="420.2" y="75.6"/>
      <point x="420.2" y="200.8" type="curve" smooth="yes"/>
      <point x="420.2" y="324.2"/>
      <point x="341.4" y="396.0"/>
      <point x="211.4" y="396.0" type="curve" smooth="yes"/>
      <point x="81.4" y="396.0"/>
      <point x="2.6000000000000085" y="324.26590673576"/>
      <point x="2.6000000000000085" y="200.8" type="curve" smooth="yes"/>
      <point x="2.6000000000000085" y="75.553364928912"/>
      <point x="77.905" y="-10.0"/>
    </contour>
    <contour>
      <point x="211.4" y="335.6" type="curve" smooth="yes"/>
      <point x="226.755" y="335.6"/>
      <point x="231.23000000000002" y="301.0"/>
      <point x="231.23000000000002" y="205.6" type="curve" smooth="yes"/>
      <point x="231.23000000000002" y="116.8"/>
      <point x="225.605" y="76.0"/>
      <point x="211.4" y="76.0" type="curve" smooth="yes"/>
      <point x="197.195" y="76.0"/>
      <point x="191.57" y="116.8"/>
      <point x="191.57" y="205.6" type="curve" smooth="yes"/>
      <point x="191.57" y="301.0"/>
      <point x="196.045" y="335.6"/>
    </contour>
    <contour>
      <point x="211.4" y="361.0" type="curve" smooth="yes"/>
      <point x="332.6109756097" y="361.0"/>
      <point x="403.03" y="427.2"/>
      <point x="403.03" y="539.0" type="curve" smooth="yes"/>
      <point x="403.03" y="645.4"/>
      <point x="331.59" y="720.0"/>
      <point x="211.4" y="720.0" type="curve" smooth="yes"/>
      <point x="91.21000000000001" y="720.0"/>
      <point x="19.770000000000003" y="645.4"/>
      <point x="19.770000000000003" y="539.0" type="curve" smooth="yes"/>
      <point x="19.770000000000003" y="427.2"/>
      <point x="90.1890243903" y="361.0"/>
    </contour>
    <contour>
      <point x="211.4" y="634.0" type="curve" smooth="yes"/>
      <point x="224.925" y="634.0"/>
      <point x="230.435" y="604.4"/>
      <point x="230.435" y="526.4" type="curve" smooth="yes"/>
      <point x="230.435" y="444.6"/>
      <point x="224.925" y="416.4"/>
      <point x="211.4" y="416.4" type="curve" smooth="yes"/>
      <point x="197.875" y="416.4"/>
      <point x="192.365" y="444.6"/>
      <point x="192.365" y="526.4" type="curve" smooth="yes"/>
      <point x="192.365" y="604.4"/>
      <point x="197.875" y="634.0"/>
    </contour>
  </outline>
</glyph>
<glyph name="f_h" format="2">
  <advance width="808.015"/>
  <outline>
    <contour>
      <point x="-3.150000000000002" y="514.8" type="line"/>
      <point x="-3.150000000000002" y="440.4" type="line"/>
      <point x="294.385" y="440.4" type="line"/>
      <point x="294.385" y="514.8" type="line"/>
    </contour>
    <contour>
      <point x="888.035" y="10.8" type="curve"/>
      <point x="888.035" y="175.0" type="line"/>
      <point x="888.035" y="196.8"/>
      <point x="882.505" y="205.60000000000002"/>
      <point x="872.95" y="205.60000000000002" type="curve" smooth="yes"/>
      <point x="849.595" y="205.60000000000002"/>
      <point x="830.0096018265057" y="205.57742384578287"/>
      <point x="828.415" y="219.60000000000002" type="curve" smooth="yes"/>
      <point x="827.185" y="419.6" type="line" smooth="yes"/>
      <point x="828.805" y="515.4"/>
      <point x="777.64" y="570.8"/>
      <point x="691.365" y="570.8" type="curve" smooth="yes"/>
      <point x="628.4449999999999" y="570.8"/>
      <point x="578.775" y="521.2"/>
      <point x="549.6800000000001" y="438.2" type="curve"/>
      <point x="564.0550000000001" y="274.0" type="line"/>
      <point x="578.775" y="303.4"/>
      <point x="602.5799999999999" y="325.2"/>
      <point x="634.3299999999999" y="325.2" type="curve" smooth="yes"/>
      <point x="658.135" y="325.2"/>
      <point x="667.3" y="311.6"/>
      <point x="667.3" y="284.4" type="curve" smooth="yes"/>
      <point x="667.3" y="67.2" type="line" smooth="yes"/>
      <point x="667.3" y="62.400000000000006"/>
      <point x="620.87" y="60.800000000000004"/>
      <point x="610.29" y="60.800000000000004" type="curve" smooth="yes"/>
      <point x="609.14" y="66.80000000000001" type="line"/>
      <point x="609.8299999999999" y="6.0" type="line"/>
      <point x="615.4045454545454" y="6.0"/>
      <point x="888.035" y="6.6000000000000005"/>
    </contour>
    <contour>
      <point x="565.625" y="0.0" type="line"/>
      <point x="537.065" y="60.800000000000004" type="line"/>
      <point x="534.42" y="66.80000000000001" type="line" smooth="yes"/>
      <point x="526.14" y="66.80000000000001"/>
      <point x="510.615" y="68.4"/>
      <point x="510.615" y="73.2" type="curve" smooth="yes"/>
      <point x="514.755" y="73.2"/>
      <point x="518.79" y="590.8"/>
      <point x="518.79" y="592.0" type="curve"/>
      <point x="276.83" y="734.0" type="line"/>
      <point x="325.275" y="687.6" type="line"/>
      <point x="316.365" y="210.2" type="line"/>
      <point x="316.365" y="205.4"/>
      <point x="301.645" y="74.0"/>
      <point x="293.365" y="74.0" type="curve" smooth="yes"/>
      <point x="293.365" y="68.2"/>
      <point x="292.87" y="66.80000000000001"/>
      <point x="299.815" y="66.80000000000001" type="curve"/>
      <point x="299.86" y="6.0" type="line"/>
    </contour>
    <contour>
      <point x="196.91500000000002" y="0.0" type="line"/>
      <point x="196.91500000000002" y="66.80000000000001" type="line"/>
      <point x="194.42000000000002" y="66.80000000000001" type="line" smooth="yes"/>
      <point x="180.585" y="66.80000000000001"/>
      <point x="173.695" y="69.80000000000001"/>
      <point x="173.695" y="80.4" type="curve"/>
      <point x="173.695" y="533.4" type="line" smooth="yes"/>
      <point x="173.695" y="598.8"/>
      <point x="198.05" y="628.0"/>
      <point x="246.35999999999999" y="628.0" type="curve" smooth="yes"/>
      <point x="295.90999999999997" y="628.0"/>
      <point x="327.765" y="595.2"/>
      <point x="350.28" y="527.0" type="curve"/>
      <point x="439.475" y="626.2" type="line"/>
      <point x="390.9" y="665.0"/>
      <point x="326.8" y="695.8"/>
      <point x="226.36" y="695.8" type="curve" smooth="yes"/>
      <point x="88.73" y="695.8"/>
      <point x="-28.38499999999999" y="645.8"/>
      <point x="-28.38499999999999" y="503.79999999999995" type="curve" smooth="yes"/>
      <point x="-28.38499999999999" y="92.8" type="line" smooth="yes"/>
      <point x="-28.38499999999999" y="75.4"/>
      <point x="-36.68999999999998" y="66.80000000000001"/>
      <point x="-57.58499999999998" y="66.80000000000001" type="curve" smooth="yes"/>
      <point x="-68.16499999999999" y="66.80000000000001" type="line"/>
      <point x="-68.16499999999999" y="0.0" type="line"/>
    </contour>
  </outline>
</glyph>
<glyph name="horn" format="2">
  <advance width="377.605"/>
  <anchor x="195.0" y="444.0" name="_top"/>
  <outline>
    <contour>
      <point x="91.175" y="476.0" type="curve"/>
      <point x="273.0266214789254" y="459.3996203908905"/>
      <point x="338.72" y="510.8195348837209"/>
      <point x="338.72" y="682.0" type="curve"/>
      <point x="208.86" y="682.0" type="line"/>
      <point x="206.56" y="557.9905263157895"/>
      <point x="164.595" y="524.8"/>
      <point x="63.735" y="524.8" type="curve"/>
      <point x="66.725" y="512.8"/>
      <point x="82.09" y="479.2"/>
    </contour>
  </outline>
</glyph>
<glyph name="lira.proportional" format="2">
  <advance width="480.52"/>
  <outline>
    <contour>
      <point x="319.975" y="-10.0" type="curve"/>
      <point x="399.695" y="-10.0"/>
      <point x="447.225" y="72.8"/>
      <point x="468.305" y="177.2" type="curve"/>
      <point x="384.39" y="206.4" type="line"/>
      <point x="369.14" y="141.8"/>
      <point x="356.11" y="122.4"/>
      <point x="322.08" y="122.4" type="curve"/>
      <point x="283.76" y="122.4"/>
      <point x="255.63" y="147.0"/>
      <point x="214.55" y="204.6" type="curve"/>
      <point x="183.35" y="195.6"/>
      <point x="149.16" y="156.0"/>
      <point x="150.805" y="135.2" type="curve"/>
      <point x="221.865" y="44.8"/>
      <point x="261.115" y="-10.0"/>
    </contour>
    <contour>
      <point x="12.915000000000003" y="469.0" type="line"/>
      <point x="12.915000000000003" y="394.6" type="line"/>
      <point x="364.33" y="394.6" type="line"/>
      <point x="364.33" y="469.0" type="line"/>
    </contour>
    <contour>
      <point x="12.915000000000003" y="325.0" type="line"/>
      <point x="12.915000000000003" y="250.6" type="line"/>
      <point x="364.33" y="250.6" type="line"/>
      <point x="364.33" y="325.0" type="line"/>
    </contour>
    <contour>
      <point x="278.205" y="638.0" type="curve" smooth="yes"/>
      <point x="291.73" y="638.0"/>
      <point x="302.485" y="625.6"/>
      <point x="310.305" y="601.2" type="curve"/>
      <point x="335.755" y="611.0"/>
      <point x="337.525" y="640.8"/>
      <point x="301.955" y="641.2" type="curve"/>
      <point x="301.955" y="542.4" type="line"/>
      <point x="442.65999999999997" y="542.4" type="line"/>
      <point x="442.65999999999997" y="665.4" type="line"/>
      <point x="408.58500000000004" y="693.8"/>
      <point x="347.195" y="720.0"/>
      <point x="263.83" y="720.0" type="curve" smooth="yes"/>
      <point x="119.995" y="720.0"/>
      <point x="47.485" y="633.4"/>
      <point x="47.485" y="527.2" type="curve" smooth="yes"/>
      <point x="47.485" y="399.8"/>
      <point x="120.18" y="340.0"/>
      <point x="120.18" y="228.6" type="curve" smooth="yes"/>
      <point x="120.18" y="156.4"/>
      <point x="86.190967899815" y="115.22462273736001"/>
      <point x="12.915000000000003" y="96.4" type="curve"/>
      <point x="12.915000000000003" y="-10.600000000000001" type="line"/>
      <point x="185.77586821469498" y="13.216133732688"/>
      <point x="269.83" y="134.4"/>
      <point x="269.83" y="257.8" type="curve" smooth="yes"/>
      <point x="269.83" y="379.6"/>
      <point x="242.39" y="457.4"/>
      <point x="242.39" y="543.2" type="curve" smooth="yes"/>
      <point x="242.39" y="604.6"/>
      <point x="252.615" y="638.0"/>
    </contour>
  </outline>
</glyph>
<glyph name="liraTurkish.proportional" format="2">
  <advance width="516.48"/>
  <outline>
    <contour>
      <point x="23.415000000000006" y="399.0" type="line"/>
      <point x="23.415000000000006" y="319.0" type="line"/>
      <point x="338.605" y="494.0" type="line"/>
      <point x="338.605" y="574.0" type="line"/>
    </contour>
    <contour>
      <point x="23.415000000000006" y="246.0" type="line"/>
      <point x="23.415000000000006" y="166.0" type="line"/>
      <point x="338.605" y="341.0" type="line"/>
      <point x="338.605" y="421.0" type="line"/>
    </contour>
    <contour>
      <point x="266.635" y="81.0" type="curve" smooth="yes"/>
      <point x="248.04999999999998" y="81.0" type="line"/>
      <point x="248.04999999999998" y="602.4" type="line" smooth="yes"/>
      <point x="248.04999999999998" y="631.4"/>
      <point x="260.735" y="638.4"/>
      <point x="279.01" y="638.4" type="curve" smooth="yes"/>
      <point x="292.695" y="638.4" type="line"/>
      <point x="292.695" y="710.0" type="line"/>
      <point x="22.530000000000005" y="710.0" type="line"/>
      <point x="22.530000000000005" y="638.4" type="line"/>
      <point x="30.924999999999997" y="638.4" type="line" smooth="yes"/>
      <point x="47.70499999999999" y="638.4"/>
      <point x="59.24000000000001" y="631.4"/>
      <point x="59.24000000000001" y="602.4" type="curve" smooth="yes"/>
      <point x="59.24000000000001" y="107.6" type="line" smooth="yes"/>
      <point x="59.24000000000001" y="78.6"/>
      <point x="47.55499999999999" y="71.6"/>
      <point x="30.924999999999997" y="71.6" type="curve" smooth="yes"/>
      <point x="22.530000000000005" y="71.6" type="line"/>
      <point x="22.530000000000005" y="0.0" type="line"/>
      <point x="240.415" y="0.0" type="line" smooth="yes"/>
      <point x="429.1" y="0.0"/>
      <point x="487.92499999999995" y="108.8"/>
      <point x="501.265" y="273.6" type="curve"/>
      <point x="378.455" y="308.6" type="line"/>
      <point x="369.715" y="202.0"/>
      <point x="357.04" y="81.0"/>
    </contour>
  </outline>
</glyph>
<glyph name="schwa" format="2">
  <advance width="470.525"/>
  <outline>
    <contour>
      <point x="220.14" y="524.8" type="curve" smooth="yes"/>
      <point x="119.8" y="524.8"/>
      <point x="60.205" y="471.6"/>
      <point x="25.91" y="392.2" type="curve"/>
      <point x="89.725" y="348.4" type="line"/>
      <point x="110.035" y="394.2"/>
      <point x="139.81" y="438.4"/>
      <point x="186.145" y="438.4" type="curve" smooth="yes"/>
      <point x="243.59" y="438.4"/>
      <point x="254.76999999999998" y="375.2"/>
      <point x="254.76999999999998" y="257.4" type="curve" smooth="yes"/>
      <point x="254.76999999999998" y="120.2"/>
      <point x="247.73" y="68.80000000000001"/>
      <point x="230.42000000000002" y="68.80000000000001" type="curve" smooth="yes"/>
      <point x="210.72999999999996" y="68.80000000000001"/>
      <point x="203.38" y="105.0"/>
      <point x="202.185" y="237.8" type="curve"/>
      <point x="185.325" y="205.2" type="line"/>
      <point x="364.09000000000003" y="205.2" type="line"/>
      <point x="362.985" y="280.8" type="line"/>
      <point x="15.975000000000003" y="280.8" type="line"/>
      <point x="16.975" y="85.6"/>
      <point x="92.28999999999999" y="-13.6"/>
      <point x="234.215" y="-13.6" type="curve"/>
      <point x="365.56" y="-13.6"/>
      <point x="457.39" y="93.4"/>
      <point x="457.39" y="257.0" type="curve" smooth="yes"/>
      <point x="457.39" y="423.2"/>
      <point x="373.15" y="524.8"/>
    </contour>
  </outline>
</glyph>
<glyph name="sterling.proportional" format="2">
  <advance width="476.38"/>
  <outline>
    <contour>
      <point x="31.775" y="392.4" type="line"/>
      <point x="31.775" y="296.4" type="line"/>
      <point x="382.845" y="296.4" type="line"/>
      <point x="382.845" y="392.4" type="line"/>
    </contour>
    <contour>
      <point x="313.19" y="-10.0" type="curve"/>
      <point x="396.699337748325" y="-10.0"/>
      <point x="443.43027561393" y="78.397795088512"/>
      <point x="465.65999999999997" y="186.0" type="curve"/>
      <point x="381.745" y="215.2" type="line"/>
      <point x="366.49572738369" y="149.79576330904"/>
      <point x="349.32271186439" y="126.4"/>
      <point x="308.855" y="126.4" type="curve" smooth="yes"/>
      <point x="270.520000000015" y="126.4"/>
      <point x="251.375849806695" y="151.014870201094"/>
      <point x="210.41" y="208.6" type="curve"/>
      <point x="179.20999999999998" y="199.6"/>
      <point x="144.215" y="156.8"/>
      <point x="146.665" y="135.2" type="curve"/>
      <point x="216.91319425715" y="44.826507722476"/>
      <point x="256.96661764705" y="-10.0"/>
    </contour>
    <contour>
      <point x="271.765" y="634.0" type="curve" smooth="yes"/>
      <point x="285.29095744682" y="634.0"/>
      <point x="296.05274250119" y="621.61147037214"/>
      <point x="303.865" y="597.2" type="curve"/>
      <point x="329.315" y="607.0"/>
      <point x="331.085" y="636.8"/>
      <point x="296.32" y="637.2" type="curve"/>
      <point x="296.32" y="522.4" type="line"/>
      <point x="437.715" y="522.4" type="line"/>
      <point x="437.715" y="661.4" type="line"/>
      <point x="403.64767371932" y="693.00917318172"/>
      <point x="349.84119047617" y="720.0"/>
      <point x="258.54" y="720.0" type="curve" smooth="yes"/>
      <point x="114.81753061225501" y="720.0"/>
      <point x="47.485" y="633.39846153844"/>
      <point x="47.485" y="527.2" type="curve" smooth="yes"/>
      <point x="47.485" y="401.39603773584"/>
      <point x="119.83500000000001" y="341.59264150946"/>
      <point x="119.83500000000001" y="228.6" type="curve" smooth="yes"/>
      <point x="119.83500000000001" y="159.6"/>
      <point x="85.955" y="118.4"/>
      <point x="31.775" y="96.4" type="curve"/>
      <point x="31.775" y="-10.600000000000001" type="line"/>
      <point x="182.89999999999998" y="16.4"/>
      <point x="264.54" y="137.6"/>
      <point x="264.54" y="257.8" type="curve" smooth="yes"/>
      <point x="264.54" y="381.1978846154"/>
      <point x="234.45499999999998" y="458.99442307692"/>
      <point x="234.45499999999998" y="543.2" type="curve" smooth="yes"/>
      <point x="234.45499999999998" y="602.22134228188"/>
      <point x="245.83828947367" y="634.0"/>
    </contour>
  </outline>
</glyph>
<glyph name="tilde.uc" format="2">
  <advance width="377.5"/>
  <anchor x="188.4" y="694.0" name="_top"/>
  <outline>
    <contour>
      <point x="238.495" y="753.0" type="curve" smooth="yes"/>
      <point x="295.0875" y="753.0"/>
      <point x="328.6230531914164" y="809.6985823817812"/>
      <point x="344.09000000000003" y="897.4" type="curve"/>
      <point x="268.305" y="925.2" type="line"/>
      <point x="261.4573616369449" y="892.8236825910719"/>
      <point x="253.895" y="876.8"/>
      <point x="237.99" y="876.8" type="curve" smooth="yes"/>
      <point x="211.9947" y="876.8"/>
      <point x="197.0158445945946" y="922.6"/>
      <point x="141.155" y="922.6" type="curve" smooth="yes"/>
      <point x="80.91466019417476" y="922.6"/>
      <point x="51.034845325391686" y="868.2266371691954"/>
      <point x="36.860000000000014" y="778.0" type="curve"/>
      <point x="112.645" y="752.0" type="line"/>
      <point x="118.34474574933355" y="784.5780307667285"/>
      <point x="125.85999999999999" y="799.8"/>
      <point x="141.465" y="799.8" type="curve" smooth="yes"/>
      <point x="162.2296" y="799.8"/>
      <point x="178.2309589041096" y="753.0"/>
    </contour>
  </outline>
</glyph>
<glyph name="whiterightpointingtriangle" format="2">
  <advance width="432.3"/>
  <outline>
    <contour>
      <point x="97.8" y="545.0" type="line"/>
      <point x="97.8" y="10.0" type="line"/>
      <point x="379.8" y="277.0" type="line"/>
    </contour>
    <contour>
      <point x="128.0" y="474.0" type="line"/>
      <point x="124.4" y="470.0" type="line"/>
      <point x="333.2" y="274.0" type="line"/>
      <point x="333.2" y="281.0" type="line"/>
      <point x="124.4" y="84.0" type="line"/>
      <point x="128.0" y="80.0" type="line"/>
    </contour>
  </outline>
</glyph>
